<svg xmlns="http://www.w3.org/2000/svg" viewBox="0 0 1950 460" font-family="monospace">
  <rect width="1950" height="460" fill="#f8fafc" rx="20"/>
  
  <!-- Root -->
  <text x="30" y="40" font-size="22" font-weight="700" fill="#6366f1">AIT209-DryBean-Classification/</text>
  
  <!-- Level 1 -->
  <line x1="30" y1="50" x2="50" y2="50" stroke="#94a3b8" stroke-width="1"/>
  <line x1="30" y1="50" x2="30" y2="70" stroke="#94a3b8" stroke-width="1"/>
  <text x="55" y="70" font-size="18" fill="#334155">main.py</text>
  <text x="250" y="70" font-size="14" fill="#6366f1">← 一键启动入口</text>
  
  <line x1="30" y1="80" x2="55" y2="80" stroke="#94a3b8" stroke-width="1"/>
  <text x="60" y="95" font-size="18" fill="#334155">requirements.txt</text>
  
  <line x1="30" y1="105" x2="55" y2="105" stroke="#94a3b8" stroke-width="1"/>
  <text x="60" y="120" font-size="18" fill="#334155">book.json</text>
  
  <line x1="30" y1="130" x2="55" y2="130" stroke="#94a3b8" stroke-width="1"/>
  <text x="60" y="145" font-size="18" fill="#334155">SUMMARY.md</text>
  
  <line x1="30" y1="155" x2="55" y2="155" stroke="#94a3b8" stroke-width="1"/>
  <text x="60" y="170" font-size="18" fill="#334155">README.md</text>
  
  <!-- src/ -->
  <line x1="30" y1="180" x2="55" y2="180" stroke="#94a3b8" stroke-width="1"/>
  <line x1="55" y1="175" x2="55" y2="320" stroke="#94a3b8" stroke-width="1"/>
  <text x="60" y="195" font-size="20" font-weight="700" fill="#172033">src/</text>
  <text x="130" y="195" font-size="14" fill="#5b6475">源代码</text>
  
  <line x1="55" y1="205" x2="80" y2="205" stroke="#94a3b8" stroke-width="1"/>
  <text x="85" y="220" font-size="17" fill="#334155">data_loader.py</text>
  <text x="280" y="220" font-size="14" fill="#5b6475">→ 数据加载 + 标签映射</text>
  
  <line x1="55" y1="230" x2="80" y2="230" stroke="#94a3b8" stroke-width="1"/>
  <text x="85" y="245" font-size="17" fill="#334155">preprocess.py</text>
  <text x="280" y="245" font-size="14" fill="#5b6475">→ 5步预处理流水线</text>
  
  <line x1="55" y1="255" x2="80" y2="255" stroke="#94a3b8" stroke-width="1"/>
  <text x="85" y="270" font-size="17" fill="#334155">main.py</text>
  <text x="280" y="270" font-size="14" fill="#5b6475">→ 训练调度 (KNN/SVM/RF/AdaBoost)</text>
  
  <line x1="55" y1="280" x2="80" y2="280" stroke="#94a3b8" stroke-width="1"/>
  <text x="85" y="295" font-size="17" fill="#334155">gnn.py</text>
  <text x="280" y="295" font-size="14" fill="#5b6475">→ 图卷积网络 (KNN图 + 2层GCN)</text>
  
  <!-- data/ -->
  <line x1="30" y1="330" x2="55" y2="330" stroke="#94a3b8" stroke-width="1"/>
  <text x="60" y="345" font-size="20" font-weight="700" fill="#172033">data/</text>
  <text x="125" y="345" font-size="14" fill="#5b6475">数据集 (gitignore)</text>
  
  <line x1="55" y1="355" x2="80" y2="355" stroke="#94a3b8" stroke-width="1"/>
  <text x="85" y="370" font-size="16" fill="#94a3b8">*.csv  (不提交到 git)</text>
  
  <!-- results/ -->
  <line x1="30" y1="385" x2="55" y2="385" stroke="#94a3b8" stroke-width="1"/>
  <text x="60" y="400" font-size="20" font-weight="700" fill="#172033">results/</text>
  <text x="155" y="400" font-size="14" fill="#5b6475">实验结果</text>
  
  <line x1="55" y1="410" x2="80" y2="410" stroke="#94a3b8" stroke-width="1"/>
  <text x="85" y="425" font-size="17" fill="#334155">model_comparison.csv</text>
  
  <!-- docs/ -->
  <line x1="30" y1="435" x2="55" y2="435" stroke="#94a3b8" stroke-width="1"/>
  <text x="60" y="450" font-size="20" font-weight="700" fill="#172033">docs/</text>
  <text x="130" y="450" font-size="14" fill="#5b6475">GitBook 文档</text>
</svg>
