<svg xmlns="http://www.w3.org/2000/svg" viewBox="0 0 1950 375" font-family="system-ui,sans-serif">
  <defs><marker id="a" markerWidth="7" markerHeight="5" refX="7" refY="2.5" orient="auto"><path d="M0,0 L7,2.5 L0,5 Z" fill="#6366f1"/></marker></defs>
  <rect width="1950" height="375" fill="#f8fafc" rx="50"/>
  <!-- Training -->
  <text x="62" y="55" font-size="32.5" font-weight="600" fill="#5b6475">训练：存储到 kd-tree</text>
  <rect x="25" y="85" width="350" height="100" rx="38" fill="#bfdbfe" stroke="#94a3b8"/>
  <text x="200" y="145" text-anchor="middle" font-size="30.0" font-weight="600" fill="#172033">训练集 → kd-tree</text>
  <line x1="375" y1="135" x2="450" y2="135" stroke="#64748b" stroke-width="6" marker-end="url(#a)"/>
  <rect x="462" y="85" width="250" height="100" rx="38" fill="#99f6e4" stroke="#94a3b8"/>
  <text x="588" y="145" text-anchor="middle" font-size="27.5" fill="#172033">存储完成</text>
  <!-- Prediction flow -->
  <text x="62" y="245" font-size="32.5" font-weight="600" fill="#172033">预测：</text>
  <ellipse cx="345" cy="770" rx="112" ry="88" fill="#fde68a" stroke="#e2e8f0"/>
  <text x="138" y="318" text-anchor="middle" font-size="22.5" fill="#172033">x</text>
  <line x1="182" y1="308" x2="300" y2="308" stroke="#64748b" stroke-width="6" marker-end="url(#a)"/>
  <rect x="312" y="270" width="400" height="75" rx="38" fill="#c7d2fe" stroke="#94a3b8"/>
  <text x="512" y="318" text-anchor="middle" font-size="27.5" fill="#172033">① d=√Σ(x−x')² 全部训练样本</text>
  <line x1="712" y1="308" x2="825" y2="308" stroke="#64748b" stroke-width="6" marker-end="url(#a)"/>
  <rect x="838" y="270" width="300" height="75" rx="38" fill="#c7d2fe" stroke="#94a3b8"/>
  <text x="988" y="318" text-anchor="middle" font-size="27.5" fill="#172033">② 取K=5近邻</text>
  <line x1="1138" y1="308" x2="1250" y2="308" stroke="#64748b" stroke-width="6" marker-end="url(#a)"/>
  <rect x="1262" y="270" width="325" height="75" rx="38" fill="#c7d2fe" stroke="#94a3b8"/>
  <text x="1425" y="318" text-anchor="middle" font-size="27.5" fill="#172033">③ 5邻居标签投票</text>
  <line x1="1588" y1="308" x2="1700" y2="308" stroke="#64748b" stroke-width="6" marker-end="url(#a)"/>
  <rect x="1712" y="270" width="200" height="75" rx="38" fill="#fde68a" stroke="#94a3b8"/>
  <text x="1812" y="318" text-anchor="middle" font-size="32.5" font-weight="700" fill="#172033">91.78%</text>
</svg>
