<svg xmlns="http://www.w3.org/2000/svg" viewBox="0 0 1950 200" font-family="system-ui,sans-serif">
  <defs><marker id="a" markerWidth="18" markerHeight="12" refX="18" refY="6" orient="auto"><path d="M0,0 L18,6 L0,12 Z" fill="#6366f1"/></marker></defs>
  <rect width="1950" height="200" fill="#f8fafc" rx="20"/>
  
  <text x="30" y="40" font-size="24" font-weight="600" fill="#5b6475">训练：存储到 kd-tree（无参数，零训练时间）</text>
  
  <rect x="20" y="60" width="280" height="60" rx="16" fill="#bfdbfe" stroke="#94a3b8" stroke-width="2"/>
  <text x="160" y="98" text-anchor="middle" font-size="22" font-weight="600" fill="#172033">训练集 → kd-tree 索引</text>
  
  <line x1="300" y1="90" x2="420" y2="90" stroke="#64748b" stroke-width="3" marker-end="url(#a)"/>
  <rect x="430" y="60" width="200" height="60" rx="16" fill="#99f6e4" stroke="#94a3b8" stroke-width="2"/>
  <text x="530" y="98" text-anchor="middle" font-size="22" fill="#172033">存储完成 ✓</text>
  
  <text x="30" y="155" font-size="28" font-weight="700" fill="#172033">预测：</text>
  
  <ellipse cx="55" cy="180" rx="28" ry="24" fill="#fde68a" stroke="#cbb95e" stroke-width="2"/>
  <text x="55" y="186" text-anchor="middle" font-size="16" fill="#172033">x</text>
  
  <line x1="83" y1="180" x2="180" y2="180" stroke="#64748b" stroke-width="3" marker-end="url(#a)"/>
  <rect x="190" y="155" width="300" height="50" rx="14" fill="#c7d2fe" stroke="#818cf8" stroke-width="2"/>
  <text x="340" y="185" text-anchor="middle" font-size="20" fill="#172033">① 计算欧氏距离 d=√Σ(x−x')²</text>
  
  <line x1="490" y1="180" x2="580" y2="180" stroke="#64748b" stroke-width="3" marker-end="url(#a)"/>
  <rect x="590" y="155" width="240" height="50" rx="14" fill="#c7d2fe" stroke="#818cf8" stroke-width="2"/>
  <text x="710" y="185" text-anchor="middle" font-size="20" fill="#172033">② 取 K=5 最近邻居</text>
  
  <line x1="830" y1="180" x2="920" y2="180" stroke="#64748b" stroke-width="3" marker-end="url(#a)"/>
  <rect x="930" y="155" width="240" height="50" rx="14" fill="#c7d2fe" stroke="#818cf8" stroke-width="2"/>
  <text x="1050" y="185" text-anchor="middle" font-size="20" fill="#172033">③ 5邻居标签投票</text>
  
  <line x1="1170" y1="180" x2="1270" y2="180" stroke="#64748b" stroke-width="3" marker-end="url(#a)"/>
  <rect x="1280" y="160" width="140" height="40" rx="14" fill="#fde68a" stroke="#cbb95e" stroke-width="2"/>
  <text x="1350" y="186" text-anchor="middle" font-size="26" font-weight="700" fill="#172033">91.78%</text>
</svg>
