<svg xmlns="http://www.w3.org/2000/svg" viewBox="0 0 1950 488" font-family="system-ui,sans-serif">
  <defs><marker id="a" markerWidth="7" markerHeight="5" refX="7" refY="2.5" orient="auto"><path d="M0,0 L7,2.5 L0,5 Z" fill="#6366f1"/></marker></defs>
  <rect width="1950" height="488" fill="#f8fafc" rx="50"/>
  <!-- Top -->
  <text x="50" y="55" font-size="32.5" font-weight="600" fill="#172033">训练：Bootstrap 采样 → 100棵树并行训练 → 每棵随机选 √16=4 特征分裂</text>
  <rect x="25" y="90" width="300" height="100" rx="38" fill="#bfdbfe" stroke="#94a3b8"/>
  <text x="175" y="150" text-anchor="middle" font-size="27.5" font-weight="600" fill="#172033">训练集 (9527条)</text>
  <!-- Bootstrap → samples -->
  <line x1="325" y1="112" x2="438" y2="112" stroke="#6366f1" stroke-width="6"/><line x1="325" y1="140" x2="438" y2="140" stroke="#6366f1" stroke-width="6"/><line x1="325" y1="168" x2="438" y2="168" stroke="#6366f1" stroke-width="6"/>
  <text x="380" y="88" font-size="22.5" fill="#6366f1">Bootstrap</text>
  <!-- Samples → trees -->
  <rect x="450" y="88" width="200" height="45" rx="20" fill="#e2e8f0"/><text x="550" y="120" text-anchor="middle" font-size="22.5" fill="#172033">子集₁</text><line x1="650" y1="110" x2="725" y2="110" stroke="#64748b" stroke-width="6"/>
  <rect x="450" y="140" width="200" height="45" rx="20" fill="#e2e8f0"/><text x="550" y="172" text-anchor="middle" font-size="22.5" fill="#172033">子集₂</text><line x1="650" y1="162" x2="725" y2="162" stroke="#64748b" stroke-width="6"/>
  <rect x="450" y="192" width="200" height="45" rx="20" fill="#e2e8f0"/><text x="550" y="225" text-anchor="middle" font-size="22.5" fill="#172033">子集₁₀₀</text><line x1="650" y1="215" x2="725" y2="215" stroke="#64748b" stroke-width="6"/>
  <!-- Trees with circles -->
  <circle cx="2062" cy="275" r="30" fill="#c7d2fe" stroke="#818cf8"/><text x="825" y="120" text-anchor="middle" font-size="22.5" fill="#172033">T₁</text>
  <circle cx="2062" cy="405" r="30" fill="#c7d2fe" stroke="#818cf8"/><text x="825" y="172" text-anchor="middle" font-size="22.5" fill="#172033">T₂</text>
  <circle cx="2062" cy="538" r="30" fill="#c7d2fe" stroke="#818cf8"/><text x="825" y="225" text-anchor="middle" font-size="22.5" fill="#172033">T₁₀₀</text>
  <text x="900" y="120" font-size="22.5" fill="#5b6475">depth=12, Gini 分裂</text>
  <text x="900" y="170" font-size="22.5" fill="#5b6475">随机选4特征/节点</text>
  <text x="900" y="225" font-size="22.5" fill="#5b6475">OOB 37%天然验证</text>
  <!-- Prediction -->
  <text x="50" y="350" font-size="32.5" font-weight="600" fill="#172033">预测：</text>
  <ellipse cx="312" cy="1030" rx="88" ry="70" fill="#fde68a" stroke="#e2e8f0"/><text x="125" y="422" text-anchor="middle" font-size="20.0" fill="#172033">x</text>
  <line x1="160" y1="412" x2="275" y2="412" stroke="#64748b" stroke-width="6" marker-end="url(#a)"/>
  <circle cx="875" cy="1030" r="25" fill="#c7d2fe" stroke="#818cf8"/><circle cx="1062" cy="1030" r="25" fill="#c7d2fe" stroke="#818cf8"/><circle cx="1250" cy="1030" r="25" fill="#c7d2fe" stroke="#818cf8"/>
  <text x="550" y="422" font-size="22.5" fill="#5b6475">... 100棵树</text>
  <line x1="725" y1="412" x2="825" y2="412" stroke="#64748b" stroke-width="6" marker-end="url(#a)"/>
  <rect x="838" y="375" width="300" height="75" rx="38" fill="#c7d2fe" stroke="#94a3b8"/>
  <text x="988" y="422" text-anchor="middle" font-size="27.5" fill="#172033">多数投票</text>
  <line x1="1138" y1="412" x2="1238" y2="412" stroke="#64748b" stroke-width="6" marker-end="url(#a)"/>
  <rect x="1250" y="382" width="175" height="60" rx="38" fill="#fde68a" stroke="#94a3b8"/>
  <text x="1338" y="422" text-anchor="middle" font-size="32.5" font-weight="700" fill="#172033">92.36%</text>
</svg>
