<svg xmlns="http://www.w3.org/2000/svg" viewBox="0 0 1950 488" font-family="system-ui,sans-serif">
  <defs><marker id="a" markerWidth="7" markerHeight="5" refX="7" refY="2.5" orient="auto"><path d="M0,0 L7,2.5 L0,5 Z" fill="#6366f1"/></marker></defs>
  <rect width="1950" height="488" fill="#f8fafc" rx="50"/>
  <!-- Top flow -->
  <rect x="25" y="25" width="325" height="95" rx="38" fill="#bfdbfe" stroke="#94a3b8"/>
  <text x="188" y="85" text-anchor="middle" font-size="30.0" font-weight="600" fill="#172033">标准化特征</text>
  <line x1="350" y1="72" x2="438" y2="72" stroke="#6366f1" stroke-width="6" marker-end="url(#a)"/>
  <rect x="450" y="25" width="350" height="95" rx="38" fill="#c7d2fe" stroke="#94a3b8"/>
  <text x="625" y="85" text-anchor="middle" font-size="30.0" font-weight="600" fill="#172033">RBF核 → 高维映射</text>
  <line x1="800" y1="72" x2="888" y2="72" stroke="#6366f1" stroke-width="6" marker-end="url(#a)"/>
  <rect x="900" y="25" width="388" height="95" rx="38" fill="#c7d2fe" stroke="#94a3b8"/>
  <text x="1092" y="85" text-anchor="middle" font-size="30.0" font-weight="600" fill="#172033">软间隔优化 (C=10)</text>
  <line x1="1288" y1="72" x2="1375" y2="72" stroke="#6366f1" stroke-width="6" marker-end="url(#a)"/>
  <rect x="1388" y="20" width="212" height="105" rx="38" fill="#99f6e4" stroke="#94a3b8"/>
  <text x="1492" y="65" text-anchor="middle" font-size="35.0" font-weight="700" fill="#172033">21个SVM</text>
  <text x="1492" y="105" text-anchor="middle" font-size="22.5" fill="#5b6475">C(7,2)=21</text>
  <!-- OVO -->
  <text x="50" y="188" font-size="30.0" font-weight="600" fill="#172033">多分类：一对一 (OVO) —  21对组合，每对训练一个二分类SVM</text>
  <rect x="25" y="212" width="1900" height="88" rx="25" fill="#e2e8f0" stroke="#94a3b8" stroke-dasharray="4 3"/>
  <circle cx="280" cy="645" r="12" fill="#93c5fd"/><text x="135" y="270" font-size="22.5" fill="#5b6475">BvB</text>
  <circle cx="720" cy="645" r="12" fill="#93c5fd"/><text x="310" y="270" font-size="22.5" fill="#5b6475">BvC</text>
  <circle cx="1155" cy="645" r="12" fill="#93c5fd"/><text x="485" y="270" font-size="22.5" fill="#5b6475">BvD</text>
  <circle cx="1595" cy="645" r="12" fill="#93c5fd"/><text x="660" y="270" font-size="22.5" fill="#5b6475">CvD</text>
  <circle cx="2030" cy="645" r="12" fill="#93c5fd"/><text x="835" y="270" font-size="22.5" fill="#5b6475">CvH</text>
  <circle cx="2470" cy="645" r="12" fill="#93c5fd"/><text x="1010" y="270" font-size="22.5" fill="#5b6475">DvH</text>
  <circle cx="2905" cy="645" r="12" fill="#93c5fd"/><text x="1185" y="270" font-size="22.5" fill="#5b6475">DvSe</text>
  <text x="1350" y="270" font-size="22.5" fill="#5b6475">···共21个</text>
  <!-- Prediction -->
  <text x="50" y="380" font-size="30.0" font-weight="600" fill="#172033">预测：</text>
  <ellipse cx="345" cy="1095" rx="100" ry="75" fill="#fde68a" stroke="#e2e8f0"/>
  <text x="138" y="448" text-anchor="middle" font-size="22.5" fill="#172033">x</text>
  <line x1="178" y1="438" x2="300" y2="438" stroke="#64748b" stroke-width="6" marker-end="url(#a)"/>
  <rect x="312" y="400" width="388" height="75" rx="38" fill="#c7d2fe" stroke="#94a3b8"/>
  <text x="505" y="448" text-anchor="middle" font-size="27.5" fill="#172033">21个分类器投票</text>
  <line x1="700" y1="438" x2="800" y2="438" stroke="#64748b" stroke-width="6" marker-end="url(#a)"/>
  <rect x="812" y="400" width="325" height="75" rx="38" fill="#c7d2fe" stroke="#94a3b8"/>
  <text x="975" y="448" text-anchor="middle" font-size="27.5" fill="#172033">票数最多=预测</text>
  <line x1="1138" y1="438" x2="1250" y2="438" stroke="#64748b" stroke-width="6" marker-end="url(#a)"/>
  <rect x="1262" y="405" width="175" height="65" rx="38" fill="#fde68a" stroke="#94a3b8"/>
  <text x="1350" y="448" text-anchor="middle" font-size="32.5" font-weight="700" fill="#172033">93.31%</text>
</svg>
